<svg width="24" height="24" viewBox="0 0 24 24" fill="none" xmlns="http://www.w3.org/2000/svg">
<g clip-path="url(#clip0_1370_2074)">
<path fill-rule="evenodd" clip-rule="evenodd" d="M17.0538 1.47438C16.8086 1.9321 16.56 2.4001 16.068 2.8921C15.576 3.3841 15.108 3.63267 14.6486 3.87781C14.3229 4.04924 14.0023 4.22067 13.68 4.47438C13.5383 4.58448 13.4237 4.7255 13.3448 4.88668C13.2659 5.04786 13.2249 5.22494 13.2249 5.40438C13.2249 5.58383 13.2659 5.7609 13.3448 5.92208C13.4237 6.08326 13.5383 6.22429 13.68 6.33438C14.0023 6.5881 14.3229 6.75953 14.6486 6.93267C15.108 7.1761 15.5778 7.42467 16.0698 7.91667C16.5618 8.40867 16.8103 8.87667 17.0538 9.3361C17.2252 9.66181 17.3966 9.98238 17.6503 10.3047C17.7604 10.4467 17.9015 10.5616 18.0629 10.6407C18.2242 10.7198 18.4015 10.7609 18.5812 10.7609C18.7609 10.7609 18.9382 10.7198 19.0995 10.6407C19.2609 10.5616 19.402 10.4467 19.512 10.3047C19.7658 9.98238 19.9355 9.66181 20.1086 9.3361C20.352 8.87667 20.6006 8.40867 21.0926 7.91667C21.5846 7.42467 22.0526 7.1761 22.512 6.93267C22.8378 6.75953 23.16 6.58981 23.4823 6.33438C23.624 6.22429 23.7387 6.08326 23.8176 5.92208C23.8965 5.7609 23.9375 5.58383 23.9375 5.40438C23.9375 5.22494 23.8965 5.04786 23.8176 4.88668C23.7387 4.7255 23.624 4.58448 23.4823 4.47438C23.178 4.24604 22.8532 4.04633 22.512 3.87781C22.0526 3.63267 21.5863 3.3841 21.0926 2.8921C20.5989 2.4001 20.352 1.9321 20.1086 1.47267C19.9355 1.14696 19.7658 0.826384 19.512 0.504098C19.402 0.362078 19.2609 0.247127 19.0995 0.168047C18.9382 0.0889658 18.7609 0.0478516 18.5812 0.0478516C18.4015 0.0478516 18.2242 0.0889658 18.0629 0.168047C17.9015 0.247127 17.7604 0.362078 17.6503 0.504098C17.3966 0.826384 17.2269 1.14867 17.0538 1.47438ZM12.3566 8.01781C11.9203 7.67816 11.576 7.23456 11.3553 6.72756C11.1346 6.22056 11.0445 5.66633 11.0932 5.11553C10.564 5.08622 10.0341 5.07136 9.50405 5.07095C7.94405 5.07095 6.42519 5.21324 4.98348 5.37438C3.79946 5.5099 2.69649 6.04327 1.85504 6.88721C1.0136 7.73114 0.483495 8.83568 0.351477 10.0201C0.197191 11.455 0.0634766 12.9618 0.0634766 14.5115C0.0634766 16.0595 0.197191 17.5664 0.351477 19.0012C0.483495 20.1857 1.0136 21.2902 1.85504 22.1341C2.69649 22.9781 3.79946 23.5114 4.98348 23.647C6.42348 23.8081 7.94233 23.9504 9.50405 23.9504C11.064 23.9504 12.5829 23.8081 14.0246 23.647C15.2086 23.5114 16.3116 22.9781 17.1531 22.1341C17.9945 21.2902 18.5246 20.1857 18.6566 19.0012C18.8109 17.5664 18.9429 16.0595 18.9429 14.5098C18.9418 13.9635 18.9269 13.423 18.8983 12.8881C18.3431 12.9422 17.7832 12.8551 17.2707 12.6348C16.7582 12.4145 16.3097 12.0682 15.9669 11.6281C15.6509 11.2109 15.3737 10.7656 15.1389 10.2978L15.0618 10.1538C14.9328 9.88683 14.7615 9.64252 14.5543 9.43038C14.3404 9.22545 14.0964 9.05434 13.8309 8.92295L13.6852 8.84581C13.218 8.61092 12.7733 8.33376 12.3566 8.01781ZM13.0166 19.1435C13.7263 19.723 14.2783 20.467 14.628 21.3035C14.3595 21.4178 14.0772 21.4921 13.7812 21.5264C12.3583 21.6841 10.9355 21.8161 9.49719 21.8161C8.06062 21.8161 6.63776 21.6841 5.21491 21.5247C4.92788 21.4921 4.64685 21.4194 4.38005 21.3087C4.74005 20.4755 5.29548 19.7075 5.98633 19.1418C6.97823 18.3314 8.21974 17.8887 9.50062 17.8887C10.7815 17.8887 12.023 18.3314 13.0149 19.1418M9.50062 16.0681C11.472 16.0681 12.5829 14.959 12.5829 12.9875C12.5829 11.0161 11.4738 9.90695 9.50233 9.90695C7.53091 9.90695 6.42176 11.0161 6.42176 12.9875C6.42176 14.959 7.53091 16.0681 9.50233 16.0681" fill="#F0F0F0"/>
</g>
<defs>
<clipPath id="clip0_1370_2074">
<rect width="24" height="24" fill="white"/>
</clipPath>
</defs>
</svg>
