<svg width="30" height="30" viewBox="0 0 30 30" fill="none" xmlns="http://www.w3.org/2000/svg">
<path d="M8.75 25H13.75C13.75 26.375 12.625 27.5 11.25 27.5C9.875 27.5 8.75 26.375 8.75 25ZM6.25 23.75H16.25V21.25H6.25V23.75ZM20.625 11.875C20.625 16.65 17.3 19.2 15.9125 20H6.5875C5.2 19.2 1.875 16.65 1.875 11.875C1.875 6.7 6.075 2.5 11.25 2.5C16.425 2.5 20.625 6.7 20.625 11.875ZM26.7125 9.2125L25 10L26.7125 10.7875L27.5 12.5L28.2875 10.7875L30 10L28.2875 9.2125L27.5 7.5L26.7125 9.2125ZM23.75 7.5L24.925 4.925L27.5 3.75L24.925 2.575L23.75 0L22.575 2.575L20 3.75L22.575 4.925L23.75 7.5Z" fill="#323232"/>
</svg>
