<svg width="25" height="24" viewBox="0 0 25 24" fill="none" xmlns="http://www.w3.org/2000/svg">
<path d="M12.5003 17.2752L8.35033 19.7752C8.167 19.8919 7.97533 19.9419 7.77533 19.9252C7.57533 19.9085 7.40033 19.8419 7.25033 19.7252C7.10033 19.6085 6.98366 19.4629 6.90033 19.2882C6.817 19.1135 6.80033 18.9175 6.85033 18.7002L7.95033 13.9752L4.27533 10.8002C4.10866 10.6502 4.00466 10.4792 3.96333 10.2872C3.922 10.0952 3.93433 9.90786 4.00033 9.7252C4.06633 9.54253 4.16633 9.39253 4.30033 9.2752C4.43433 9.15786 4.61766 9.08286 4.85033 9.0502L9.70033 8.6252L11.5753 4.1752C11.6587 3.9752 11.788 3.8252 11.9633 3.7252C12.1387 3.6252 12.3177 3.5752 12.5003 3.5752C12.683 3.5752 12.862 3.6252 13.0373 3.7252C13.2127 3.8252 13.342 3.9752 13.4253 4.1752L15.3003 8.6252L20.1503 9.0502C20.3837 9.08353 20.567 9.15853 20.7003 9.2752C20.8337 9.39186 20.9337 9.54186 21.0003 9.7252C21.067 9.90853 21.0797 10.0962 21.0383 10.2882C20.997 10.4802 20.8927 10.6509 20.7253 10.8002L17.0503 13.9752L18.1503 18.7002C18.2003 18.9169 18.1837 19.1129 18.1003 19.2882C18.017 19.4635 17.9003 19.6092 17.7503 19.7252C17.6003 19.8412 17.4253 19.9079 17.2253 19.9252C17.0253 19.9425 16.8337 19.8925 16.6503 19.7752L12.5003 17.2752Z" fill="#FCBB43"/>
</svg>
