<svg width="25" height="24" viewBox="0 0 25 24" fill="none" xmlns="http://www.w3.org/2000/svg">
<path d="M17.25 22C16.4167 22 15.7083 21.7083 15.125 21.125C14.5417 20.5417 14.25 19.8333 14.25 19C14.25 18.9 14.275 18.6667 14.325 18.3L7.3 14.2C7.03333 14.45 6.725 14.646 6.375 14.788C6.025 14.93 5.65 15.0007 5.25 15C4.41667 15 3.70833 14.7083 3.125 14.125C2.54167 13.5417 2.25 12.8333 2.25 12C2.25 11.1667 2.54167 10.4583 3.125 9.875C3.70833 9.29167 4.41667 9 5.25 9C5.65 9 6.025 9.071 6.375 9.213C6.725 9.355 7.03333 9.55067 7.3 9.8L14.325 5.7C14.2917 5.58333 14.271 5.471 14.263 5.363C14.255 5.255 14.2507 5.134 14.25 5C14.25 4.16667 14.5417 3.45833 15.125 2.875C15.7083 2.29167 16.4167 2 17.25 2C18.0833 2 18.7917 2.29167 19.375 2.875C19.9583 3.45833 20.25 4.16667 20.25 5C20.25 5.83333 19.9583 6.54167 19.375 7.125C18.7917 7.70833 18.0833 8 17.25 8C16.85 8 16.475 7.929 16.125 7.787C15.775 7.645 15.4667 7.44933 15.2 7.2L8.175 11.3C8.20833 11.4167 8.22933 11.5293 8.238 11.638C8.24667 11.7467 8.25067 11.8673 8.25 12C8.24933 12.1327 8.24533 12.2537 8.238 12.363C8.23067 12.4723 8.20967 12.5847 8.175 12.7L15.2 16.8C15.4667 16.55 15.775 16.3543 16.125 16.213C16.475 16.0717 16.85 16.0007 17.25 16C18.0833 16 18.7917 16.2917 19.375 16.875C19.9583 17.4583 20.25 18.1667 20.25 19C20.25 19.8333 19.9583 20.5417 19.375 21.125C18.7917 21.7083 18.0833 22 17.25 22Z" fill="#323232"/>
</svg>
