<svg width="30" height="30" viewBox="0 0 30 30" fill="none" xmlns="http://www.w3.org/2000/svg">
<path d="M7.5 25C7.14584 25 6.84917 24.88 6.61 24.64C6.37084 24.4 6.25084 24.1033 6.25 23.75C6.24917 23.3967 6.36917 23.1 6.61 22.86C6.85084 22.62 7.1475 22.5 7.5 22.5H22.5C22.8542 22.5 23.1513 22.62 23.3913 22.86C23.6313 23.1 23.7508 23.3967 23.75 23.75C23.7492 24.1033 23.6292 24.4004 23.39 24.6413C23.1508 24.8821 22.8542 25.0017 22.5 25H7.5ZM8.375 20.625C7.77084 20.625 7.23459 20.4271 6.76625 20.0313C6.29792 19.6354 6.01125 19.1354 5.90625 18.5313L4.65625 10.5938C4.61459 10.5938 4.56792 10.5992 4.51625 10.61C4.46459 10.6208 4.4175 10.6258 4.375 10.625C3.85417 10.625 3.41167 10.4429 3.0475 10.0788C2.68334 9.71459 2.50084 9.27167 2.5 8.75C2.49917 8.22834 2.68167 7.78584 3.0475 7.4225C3.41334 7.05917 3.85584 6.87667 4.375 6.875C4.89417 6.87334 5.33709 7.05584 5.70375 7.4225C6.07042 7.78917 6.2525 8.23167 6.25 8.75C6.25 8.89584 6.23417 9.03125 6.2025 9.15625C6.17084 9.28125 6.13459 9.39584 6.09375 9.5L10 11.25L13.9063 5.90625C13.6771 5.73959 13.4896 5.52084 13.3438 5.25C13.1979 4.97917 13.125 4.6875 13.125 4.375C13.125 3.85417 13.3075 3.41125 13.6725 3.04625C14.0375 2.68125 14.48 2.49917 15 2.5C15.52 2.50084 15.9629 2.68334 16.3288 3.0475C16.6946 3.41167 16.8767 3.85417 16.875 4.375C16.875 4.6875 16.8021 4.97917 16.6563 5.25C16.5104 5.52084 16.3229 5.73959 16.0938 5.90625L20 11.25L23.9063 9.5C23.8646 9.39584 23.8279 9.28125 23.7963 9.15625C23.7646 9.03125 23.7492 8.89584 23.75 8.75C23.75 8.22917 23.9325 7.78625 24.2975 7.42125C24.6625 7.05625 25.105 6.87417 25.625 6.875C26.145 6.87584 26.5879 7.05834 26.9538 7.4225C27.3196 7.78667 27.5017 8.22917 27.5 8.75C27.4983 9.27084 27.3163 9.71375 26.9538 10.0788C26.5913 10.4438 26.1483 10.6258 25.625 10.625C25.5833 10.625 25.5367 10.62 25.485 10.61C25.4333 10.6 25.3863 10.5946 25.3438 10.5938L24.0938 18.5313C23.9896 19.1354 23.7033 19.6354 23.235 20.0313C22.7667 20.4271 22.23 20.625 21.625 20.625H8.375Z" fill="#323232"/>
</svg>
