<svg width="30" height="30" viewBox="0 0 30 30" fill="none" xmlns="http://www.w3.org/2000/svg">
<path d="M21.875 15C21.3777 15 20.9008 14.8025 20.5492 14.4508C20.1975 14.0992 20 13.6223 20 13.125C20 12.6277 20.1975 12.1508 20.5492 11.7992C20.9008 11.4475 21.3777 11.25 21.875 11.25C22.3723 11.25 22.8492 11.4475 23.2008 11.7992C23.5525 12.1508 23.75 12.6277 23.75 13.125C23.75 13.6223 23.5525 14.0992 23.2008 14.4508C22.8492 14.8025 22.3723 15 21.875 15ZM18.125 10C17.6277 10 17.1508 9.80246 16.7992 9.45083C16.4475 9.09919 16.25 8.62228 16.25 8.125C16.25 7.62772 16.4475 7.15081 16.7992 6.79917C17.1508 6.44754 17.6277 6.25 18.125 6.25C18.6223 6.25 19.0992 6.44754 19.4508 6.79917C19.8025 7.15081 20 7.62772 20 8.125C20 8.62228 19.8025 9.09919 19.4508 9.45083C19.0992 9.80246 18.6223 10 18.125 10ZM11.875 10C11.3777 10 10.9008 9.80246 10.5492 9.45083C10.1975 9.09919 10 8.62228 10 8.125C10 7.62772 10.1975 7.15081 10.5492 6.79917C10.9008 6.44754 11.3777 6.25 11.875 6.25C12.3723 6.25 12.8492 6.44754 13.2008 6.79917C13.5525 7.15081 13.75 7.62772 13.75 8.125C13.75 8.62228 13.5525 9.09919 13.2008 9.45083C12.8492 9.80246 12.3723 10 11.875 10ZM8.125 15C7.62772 15 7.15081 14.8025 6.79917 14.4508C6.44754 14.0992 6.25 13.6223 6.25 13.125C6.25 12.6277 6.44754 12.1508 6.79917 11.7992C7.15081 11.4475 7.62772 11.25 8.125 11.25C8.62228 11.25 9.09919 11.4475 9.45083 11.7992C9.80246 12.1508 10 12.6277 10 13.125C10 13.6223 9.80246 14.0992 9.45083 14.4508C9.09919 14.8025 8.62228 15 8.125 15ZM15 3.75C12.0163 3.75 9.15483 4.93526 7.04505 7.04505C4.93526 9.15483 3.75 12.0163 3.75 15C3.75 17.9837 4.93526 20.8452 7.04505 22.955C9.15483 25.0647 12.0163 26.25 15 26.25C15.4973 26.25 15.9742 26.0525 16.3258 25.7008C16.6775 25.3492 16.875 24.8723 16.875 24.375C16.875 23.8875 16.6875 23.45 16.3875 23.125C16.1 22.7875 15.9125 22.35 15.9125 21.875C15.9125 21.3777 16.11 20.9008 16.4617 20.5492C16.8133 20.1975 17.2902 20 17.7875 20H20C21.6576 20 23.2473 19.3415 24.4194 18.1694C25.5915 16.9973 26.25 15.4076 26.25 13.75C26.25 8.225 21.2125 3.75 15 3.75Z" fill="#323232"/>
</svg>
