<svg width="30" height="30" viewBox="0 0 30 30" fill="none" xmlns="http://www.w3.org/2000/svg">
<path d="M3.48421 2.85C3.60232 2.81508 3.72615 2.80377 3.84863 2.81672C3.97111 2.82968 4.08983 2.86664 4.19802 2.92549C4.30621 2.98434 4.40174 3.06394 4.47916 3.15973C4.55658 3.25552 4.61436 3.36562 4.64921 3.48375L5.33671 5.8125H23.6555C25.9555 5.8125 27.7117 7.95875 27.0492 10.2L24.9805 17.2C24.5405 18.6912 23.1417 19.6875 21.5867 19.6875H10.1417C8.58671 19.6875 7.18921 18.6912 6.74796 17.2L2.85171 4.015C2.78152 3.7768 2.80869 3.52049 2.92728 3.30231C3.04586 3.08413 3.24616 2.92066 3.48421 2.85ZM7.81296 24.375C7.81296 23.6291 8.10928 22.9137 8.63673 22.3863C9.16417 21.8588 9.87954 21.5625 10.6255 21.5625C11.3714 21.5625 12.0868 21.8588 12.6142 22.3863C13.1416 22.9137 13.438 23.6291 13.438 24.375C13.438 25.1209 13.1416 25.8363 12.6142 26.3637C12.0868 26.8912 11.3714 27.1875 10.6255 27.1875C9.87954 27.1875 9.16417 26.8912 8.63673 26.3637C8.10928 25.8363 7.81296 25.1209 7.81296 24.375ZM17.813 24.375C17.813 24.0057 17.8857 23.6399 18.0271 23.2987C18.1684 22.9575 18.3756 22.6474 18.6367 22.3863C18.8979 22.1251 19.2079 21.9179 19.5492 21.7766C19.8904 21.6352 20.2561 21.5625 20.6255 21.5625C20.9948 21.5625 21.3605 21.6352 21.7018 21.7766C22.043 21.9179 22.353 22.1251 22.6142 22.3863C22.8754 22.6474 23.0825 22.9575 23.2239 23.2987C23.3652 23.6399 23.438 24.0057 23.438 24.375C23.438 25.1209 23.1416 25.8363 22.6142 26.3637C22.0868 26.8912 21.3714 27.1875 20.6255 27.1875C19.8795 27.1875 19.1642 26.8912 18.6367 26.3637C18.1093 25.8363 17.813 25.1209 17.813 24.375Z" fill="#F0F0F0"/>
</svg>
