<svg width="30" height="30" viewBox="0 0 30 30" fill="none" xmlns="http://www.w3.org/2000/svg">
<path d="M6.25 10C5.25544 10 4.30161 9.60491 3.59835 8.90165C2.89509 8.19839 2.5 7.24456 2.5 6.25C2.5 5.25544 2.89509 4.30161 3.59835 3.59835C4.30161 2.89509 5.25544 2.5 6.25 2.5C7.24456 2.5 8.19839 2.89509 8.90165 3.59835C9.60491 4.30161 10 5.25544 10 6.25C10 7.24456 9.60491 8.19839 8.90165 8.90165C8.19839 9.60491 7.24456 10 6.25 10ZM23.75 10C22.7554 10 21.8016 9.60491 21.0983 8.90165C20.3951 8.19839 20 7.24456 20 6.25C20 5.25544 20.3951 4.30161 21.0983 3.59835C21.8016 2.89509 22.7554 2.5 23.75 2.5C24.7446 2.5 25.6984 2.89509 26.4017 3.59835C27.1049 4.30161 27.5 5.25544 27.5 6.25C27.5 7.24456 27.1049 8.19839 26.4017 8.90165C25.6984 9.60491 24.7446 10 23.75 10ZM23.75 27.5C22.7554 27.5 21.8016 27.1049 21.0983 26.4017C20.3951 25.6984 20 24.7446 20 23.75C20 22.7554 20.3951 21.8016 21.0983 21.0983C21.8016 20.3951 22.7554 20 23.75 20C24.7446 20 25.6984 20.3951 26.4017 21.0983C27.1049 21.8016 27.5 22.7554 27.5 23.75C27.5 24.7446 27.1049 25.6984 26.4017 26.4017C25.6984 27.1049 24.7446 27.5 23.75 27.5ZM6.25 27.5C5.25544 27.5 4.30161 27.1049 3.59835 26.4017C2.89509 25.6984 2.5 24.7446 2.5 23.75C2.5 22.7554 2.89509 21.8016 3.59835 21.0983C4.30161 20.3951 5.25544 20 6.25 20C7.24456 20 8.19839 20.3951 8.90165 21.0983C9.60491 21.8016 10 22.7554 10 23.75C10 24.7446 9.60491 25.6984 8.90165 26.4017C8.19839 27.1049 7.24456 27.5 6.25 27.5ZM11.25 5H18.75V7.5H11.25V5ZM11.25 22.5H18.75V25H11.25V22.5ZM5 11.25H7.5V18.75H5V11.25ZM22.5 11.25H25V18.75H22.5V11.25Z" fill="#323232"/>
</svg>
