<svg width="147" height="147" viewBox="0 0 147 147" fill="none" xmlns="http://www.w3.org/2000/svg">
<path d="M110.25 12.25C113.499 12.25 116.615 13.5406 118.912 15.8379C121.209 18.1353 122.5 21.2511 122.5 24.5V122.5C122.5 125.749 121.209 128.865 118.912 131.162C116.615 133.459 113.499 134.75 110.25 134.75H36.75C33.5011 134.75 30.3853 133.459 28.0879 131.162C25.7906 128.865 24.5 125.749 24.5 122.5V24.5C24.5 21.2511 25.7906 18.1353 28.0879 15.8379C30.3853 13.5406 33.5011 12.25 36.75 12.25H110.25ZM73.5 79.625H55.125C53.5006 79.625 51.9426 80.2703 50.794 81.419C49.6453 82.5676 49 84.1255 49 85.75C49 87.3745 49.6453 88.9324 50.794 90.081C51.9426 91.2297 53.5006 91.875 55.125 91.875H73.5C75.1245 91.875 76.6824 91.2297 77.831 90.081C78.9797 88.9324 79.625 87.3745 79.625 85.75C79.625 84.1255 78.9797 82.5676 77.831 81.419C76.6824 80.2703 75.1245 79.625 73.5 79.625ZM91.875 49H55.125C53.5639 49.0017 52.0623 49.5995 50.9271 50.6712C49.7919 51.7429 49.1088 53.2076 49.0173 54.766C48.9258 56.3245 49.4329 57.8591 50.4349 59.0562C51.4369 60.2534 52.8582 61.0227 54.4084 61.2071L55.125 61.25H91.875C93.4361 61.2483 94.9377 60.6505 96.0729 59.5788C97.2081 58.5071 97.8912 57.0424 97.9827 55.484C98.0742 53.9255 97.5671 52.3909 96.5651 51.1938C95.5631 49.9966 94.1418 49.2273 92.5916 49.0429L91.875 49Z" fill="#323232"/>
</svg>
