<svg width="177" height="177" viewBox="0 0 177 177" fill="none" xmlns="http://www.w3.org/2000/svg">
<path d="M11.8368 2.51759C11.2331 1.86976 10.5051 1.35015 9.69632 0.989765C8.88749 0.629377 8.01436 0.435592 7.12902 0.419971C6.24367 0.404351 5.36425 0.567212 4.54321 0.898843C3.72217 1.23047 2.97634 1.72408 2.35021 2.35021C1.72408 2.97634 1.23047 3.72217 0.898843 4.54321C0.567212 5.36425 0.404351 6.24367 0.419971 7.12902C0.435592 8.01436 0.629377 8.88749 0.989765 9.69632C1.35015 10.5051 1.86976 11.2331 2.51759 11.8368L31.2927 40.6207L6.10459 68.0419L5.71776 68.4991L5.38367 68.9826C2.39451 72.4465 0.583422 76.9654 0.583422 81.9063V112.642C0.583422 120.22 3.59377 127.488 8.95223 132.846C14.3107 138.205 21.5783 141.215 29.1563 141.215H51.1267C58.7047 141.215 65.9724 138.205 71.3308 132.846C76.6893 127.488 79.6996 120.22 79.6996 112.642L79.6908 92.9311H83.6031L97.2917 106.62V112.642C97.2917 120.22 100.302 127.488 105.661 132.846C111.019 138.205 118.287 141.215 125.865 141.215H131.887L165.155 174.491C166.392 175.728 168.069 176.423 169.819 176.423C171.568 176.423 173.246 175.728 174.483 174.491C175.72 173.254 176.414 171.577 176.414 169.827C176.414 168.078 175.72 166.4 174.483 165.163L11.8368 2.51759ZM52.8059 62.1251L29.4553 62.1163L40.6383 49.9486L52.8059 62.1251ZM99.9644 71.9806L164.117 136.133C167.913 133.503 171.015 129.992 173.157 125.901C175.299 121.81 176.418 117.26 176.417 112.642V81.9063C176.417 77.2468 174.808 72.9652 172.118 69.598C171.833 69.0272 171.472 68.4978 171.045 68.0243L139.026 33.3236L137.856 32.1631C134.208 28.8157 129.436 26.9585 124.484 26.9584H117.073L116.176 27.02C114.521 27.2477 113.014 28.0951 111.96 29.3911C110.906 30.687 110.383 32.3349 110.497 34.0016C110.61 35.6683 111.353 37.2297 112.573 38.3702C113.794 39.5108 115.402 40.1454 117.073 40.1459H124.484L125.39 40.2075C126.901 40.4169 128.293 41.1439 129.329 42.2647L147.642 62.1251H117.073C109.767 62.1251 103.384 66.0989 99.9556 71.9893" fill="#323232"/>
</svg>
