<svg width="163" height="171" viewBox="0 0 163 171" fill="none" xmlns="http://www.w3.org/2000/svg">
<path d="M146.667 0L137.531 20.1981L117.333 29.3333L137.531 38.4686L146.667 58.6667L155.886 38.4686L176 29.3333L155.886 20.1981L146.667 0ZM83.8095 8.38095C37.7143 8.38095 0 46.0952 0 92.1905V176H167.619V92.1905C167.619 79.8705 164.853 68.1371 160.076 57.5771L149.684 80.3733C150.354 84.2286 150.857 88 150.857 92.1905C150.857 129.318 120.937 159.238 83.8095 159.238C46.6819 159.238 16.7619 129.318 16.7619 92.1905V91.101C27.5533 87.0584 37.395 80.8339 45.6723 72.8162C53.9495 64.7985 60.4844 55.16 64.8686 44.5029C72.7292 54.1671 82.6454 61.9575 93.8957 67.3072C105.146 72.6569 117.447 75.4313 129.905 75.4286C133.633 75.4254 137.357 75.1734 141.051 74.6743L128.648 47.3524L88.8381 29.3333L118.423 15.9238C107.863 11.1467 96.1295 8.38095 83.8095 8.38095ZM58.6667 90.0952C55.8882 90.0952 53.2236 91.199 51.2589 93.1636C49.2942 95.1283 48.1905 97.793 48.1905 100.571C48.1905 103.35 49.2942 106.015 51.2589 107.979C53.2236 109.944 55.8882 111.048 58.6667 111.048C60.0424 111.048 61.4047 110.777 62.6757 110.25C63.9468 109.724 65.1017 108.952 66.0745 107.979C67.0473 107.006 67.8189 105.852 68.3454 104.581C68.8719 103.309 69.1429 101.947 69.1429 100.571C69.1429 99.1957 68.8719 97.8334 68.3454 96.5624C67.8189 95.2913 67.0473 94.1365 66.0745 93.1636C65.1017 92.1908 63.9468 91.4192 62.6757 90.8927C61.4047 90.3662 60.0424 90.0952 58.6667 90.0952ZM108.952 90.0952C106.174 90.0952 103.509 91.199 101.545 93.1636C99.5799 95.1283 98.4762 97.793 98.4762 100.571C98.4762 103.35 99.5799 106.015 101.545 107.979C103.509 109.944 106.174 111.048 108.952 111.048C111.731 111.048 114.396 109.944 116.36 107.979C118.325 106.015 119.429 103.35 119.429 100.571C119.429 97.793 118.325 95.1283 116.36 93.1636C114.396 91.199 111.731 90.0952 108.952 90.0952Z" fill="#323232"/>
</svg>
