<svg width="176" height="176" viewBox="0 0 176 176" fill="none" xmlns="http://www.w3.org/2000/svg">
<g clip-path="url(#clip0_1223_986)">
<path d="M55 88C55 96.7521 58.4768 105.146 64.6655 111.335C70.8542 117.523 79.2479 121 88 121C96.7521 121 105.146 117.523 111.335 111.335C117.523 105.146 121 96.7521 121 88C121 79.2479 117.523 70.8542 111.335 64.6655C105.146 58.4768 96.7521 55 88 55C79.2479 55 70.8542 58.4768 64.6655 64.6655C58.4768 70.8542 55 79.2479 55 88ZM88 42.7533C89.9449 42.7533 91.8102 41.9807 93.1855 40.6055C94.5607 39.2302 95.3333 37.3649 95.3333 35.42V7.33333C95.3333 5.38841 94.5607 3.52315 93.1855 2.14788C91.8102 0.772617 89.9449 0 88 0C86.0551 0 84.1898 0.772617 82.8146 2.14788C81.4393 3.52315 80.6667 5.38841 80.6667 7.33333V35.42C80.6667 37.3649 81.4393 39.2302 82.8146 40.6055C84.1898 41.9807 86.0551 42.7533 88 42.7533ZM88 133.247C86.0551 133.247 84.1898 134.019 82.8146 135.395C81.4393 136.77 80.6667 138.635 80.6667 140.58V168.667C80.6667 170.612 81.4393 172.477 82.8146 173.852C84.1898 175.227 86.0551 176 88 176C89.9449 176 91.8102 175.227 93.1855 173.852C94.5607 172.477 95.3333 170.612 95.3333 168.667V140.58C95.3333 138.635 94.5607 136.77 93.1855 135.395C91.8102 134.019 89.9449 133.247 88 133.247ZM45.6133 56.0267C46.9873 57.3925 48.846 58.1591 50.7833 58.1591C52.7207 58.1591 54.5793 57.3925 55.9533 56.0267C56.6407 55.3449 57.1862 54.5339 57.5585 53.6402C57.9308 52.7466 58.1225 51.7881 58.1225 50.82C58.1225 49.8519 57.9308 48.8934 57.5585 47.9998C57.1862 47.1061 56.6407 46.2951 55.9533 45.6133L36.1533 25.8133C35.4744 25.1296 34.6674 24.5863 33.7785 24.2144C32.8896 23.8425 31.9362 23.6493 30.9726 23.6459C29.0266 23.639 27.1576 24.4055 25.7767 25.7767C25.0929 26.4556 24.5496 27.2626 24.1777 28.1515C23.8058 29.0404 23.6127 29.9938 23.6093 30.9574C23.6024 32.9034 24.3688 34.7724 25.74 36.1533L45.6133 56.0267ZM130.387 120.047C129.013 118.681 127.154 117.914 125.217 117.914C123.279 117.914 121.421 118.681 120.047 120.047C118.681 121.421 117.914 123.279 117.914 125.217C117.914 127.154 118.681 129.013 120.047 130.387L139.847 150.26C140.528 150.947 141.339 151.493 142.233 151.865C143.127 152.238 144.085 152.429 145.053 152.429C146.021 152.429 146.98 152.238 147.874 151.865C148.767 151.493 149.578 150.947 150.26 150.26C150.947 149.578 151.493 148.767 151.865 147.874C152.238 146.98 152.429 146.021 152.429 145.053C152.429 144.085 152.238 143.127 151.865 142.233C151.493 141.339 150.947 140.528 150.26 139.847L130.387 120.047ZM42.7533 91.6667C42.7533 89.7217 41.9807 87.8565 40.6055 86.4812C39.2302 85.106 37.3649 84.3333 35.42 84.3333H7.33333C5.38841 84.3333 3.52315 85.106 2.14788 86.4812C0.772617 87.8565 0 89.7217 0 91.6667C0 93.6116 0.772617 95.4769 2.14788 96.8521C3.52315 98.2274 5.38841 99 7.33333 99H35.42C37.3649 99 39.2302 98.2274 40.6055 96.8521C41.9807 95.4769 42.7533 93.6116 42.7533 91.6667ZM168.667 84.3333H140.58C138.635 84.3333 136.77 85.106 135.395 86.4812C134.019 87.8565 133.247 89.7217 133.247 91.6667C133.247 93.6116 134.019 95.4769 135.395 96.8521C136.77 98.2274 138.635 99 140.58 99H168.667C170.612 99 172.477 98.2274 173.852 96.8521C175.227 95.4769 176 93.6116 176 91.6667C176 89.7217 175.227 87.8565 173.852 86.4812C172.477 85.106 170.612 84.3333 168.667 84.3333ZM45.6133 120.047L25.74 139.847C25.0527 140.528 24.5071 141.339 24.1348 142.233C23.7625 143.127 23.5708 144.085 23.5708 145.053C23.5708 146.021 23.7625 146.98 24.1348 147.874C24.5071 148.767 25.0527 149.578 25.74 150.26C26.4217 150.947 27.2328 151.493 28.1264 151.865C29.0201 152.238 29.9786 152.429 30.9467 152.429C31.9148 152.429 32.8733 152.238 33.7669 151.865C34.6605 151.493 35.4716 150.947 36.1533 150.26L55.9533 130.387C57.1547 128.984 57.7825 127.179 57.7112 125.334C57.6399 123.488 56.8748 121.737 55.5688 120.431C54.2628 119.125 52.512 118.36 50.6664 118.289C48.8208 118.218 47.0162 118.845 45.6133 120.047ZM125.18 58.08C127.119 58.1108 128.991 57.3725 130.387 56.0267L150.26 36.1533C150.939 35.4696 151.477 34.6588 151.842 33.7673C152.208 32.8758 152.394 31.921 152.391 30.9574C152.387 29.9938 152.194 29.0404 151.822 28.1515C151.45 27.2626 150.907 26.4556 150.223 25.7767C149.54 25.0977 148.729 24.5601 147.837 24.1945C146.946 23.8289 145.991 23.6425 145.027 23.6459C144.064 23.6493 143.11 23.8425 142.221 24.2144C141.333 24.5863 140.526 25.1296 139.847 25.8133L120.047 45.6133C119.359 46.2951 118.814 47.1061 118.441 47.9998C118.069 48.8934 117.877 49.8519 117.877 50.82C117.877 51.7881 118.069 52.7466 118.441 53.6402C118.814 54.5339 119.359 55.3449 120.047 56.0267C121.424 57.3546 123.267 58.0915 125.18 58.08Z" fill="#323232"/>
</g>
<defs>
<clipPath id="clip0_1223_986">
<rect width="176" height="176" fill="white"/>
</clipPath>
</defs>
</svg>
